<svg id="Capa_1" enable-background="new 0 0 512 512" height="512" viewBox="0 0 512 512" width="512" xmlns="http://www.w3.org/2000/svg"><g><g><path d="m240.861 161.613-24.994 31.551-198.815-31.474c-8.89-36.834-30.558-120.003 40.729-151.45 54.859-24.204 111.12 2.095 111.12 2.095s123.66-24.029 71.96 149.278z" fill="#b16e3d"/><path d="m76.962 138.909-37.18 55.625-22.73-32.844c-8.89-36.834-30.558-120.003 40.729-151.45 54.859-24.204 111.12 2.095 111.12 2.095-103.435 0-109.726 89.459-91.939 126.574z" fill="#985e33"/><path d="m30.394 210.418c-16.786 0-30.394-13.608-30.394-30.394 0-2.31.258-4.56.746-6.723 3.943-17.462 29.648-14.598 29.648 3.304h194.519c0-17.902 25.705-20.766 29.648-3.304.488 2.163.746 4.413.746 6.723 0 16.786-13.608 30.394-30.394 30.394" fill="#eaac9d"/><path d="m224.909 145.823v49.577c0 39.146-31.734 70.888-70.888 70.888h-52.744c-39.146 0-70.888-31.742-70.888-70.888v-48.183c14.936-2.039 30.824-4.75 46.572-8.308 38.179-8.617 75.581-22.242 96.829-43.49.001 0 13.479 44.814 51.119 50.404z" fill="#ffcbbe"/><path d="m147.85 266.288h-46.572c-39.146 0-70.888-31.742-70.888-70.888v-48.183c14.936-2.039 30.824-4.75 46.572-8.308v56.491c0 39.146 31.735 70.888 70.888 70.888z" fill="#eaac9d"/><g fill="#454045"><path d="m77.757 155.584c-5.081 0-9.216 6.852-9.216 15.274 0 8.423 4.135 15.275 9.216 15.275s9.216-6.852 9.216-15.275c0-8.422-4.135-15.274-9.216-15.274z"/><path d="m177.55 155.584c-5.081 0-9.216 6.852-9.216 15.274 0 8.423 4.135 15.275 9.216 15.275s9.216-6.852 9.216-15.275c.001-8.422-4.134-15.274-9.216-15.274z"/></g><path d="m127.655 222.423c-10.56 0-20.036-6.29-24.14-16.025-1.327-3.146.148-6.771 3.294-8.097 3.147-1.327 6.772.149 8.097 3.295 2.169 5.143 7.173 8.466 12.749 8.466 5.577 0 10.581-3.323 12.75-8.466 1.326-3.146 4.95-4.619 8.097-3.295 3.146 1.326 4.621 4.951 3.294 8.097-4.104 9.735-13.58 16.025-24.141 16.025z" fill="#dd636e"/><g fill="#e490b7"><ellipse cx="184.944" cy="200.439" rx="15.921" ry="9.681"/><ellipse cx="70.362" cy="200.439" rx="15.921" ry="9.681"/></g><path d="m137.124 190.527h-18.942c-3.413 0-6.181-2.767-6.181-6.181s2.768-6.181 6.181-6.181h18.942c3.413 0 6.181 2.767 6.181 6.181s-2.768 6.181-6.181 6.181z" fill="#eaac9d"/></g><g><path d="m287.087 456.129c-16.786 0-30.394-13.608-30.394-30.394 0-2.31.258-4.56.746-6.723 3.943-17.462 29.648-14.598 29.648 3.304h194.519c0-17.902 25.705-20.766 29.648-3.304.488 2.163.746 4.413.746 6.723 0 16.786-13.608 30.394-30.394 30.394" fill="#b17a4a"/><path d="m287.086 326.071v115.042c0 39.146 31.742 70.888 70.888 70.888h52.744c39.153 0 70.888-31.742 70.888-70.888v-115.042" fill="#c38959"/><path d="m402.619 512h-44.645c-39.146 0-70.888-31.742-70.888-70.888v-115.043h44.645v115.043c0 39.146 31.742 70.888 70.888 70.888z" fill="#b17a4a"/><g fill="#454045"><ellipse cx="334.45" cy="416.57" rx="9.216" ry="15.275"/><ellipse cx="434.243" cy="416.57" rx="9.216" ry="15.275"/></g><path d="m384.349 468.134c-10.561 0-20.037-6.29-24.141-16.025-1.327-3.146.148-6.771 3.294-8.097 3.148-1.327 6.772.149 8.097 3.295 2.169 5.142 7.173 8.465 12.75 8.465 5.576 0 10.58-3.323 12.75-8.465 1.326-3.146 4.95-4.62 8.097-3.295 3.146 1.326 4.621 4.951 3.294 8.097-4.105 9.735-13.581 16.025-24.141 16.025z" fill="#985e33"/><g fill="#e490b7"><ellipse cx="441.638" cy="446.15" rx="15.921" ry="9.681"/><ellipse cx="327.056" cy="446.15" rx="15.921" ry="9.681"/></g><path d="m393.818 436.239h-18.942c-3.413 0-6.181-2.767-6.181-6.181s2.768-6.181 6.181-6.181h18.942c3.413 0 6.181 2.767 6.181 6.181s-2.768 6.181-6.181 6.181z" fill="#b17a4a"/><path d="m461.759 253.056h-154.827c-10.961 0-19.846 8.885-19.846 19.846v53.168 14.909 44.728c11.116 0 20.127-9.011 20.127-20.127v-24.6h154.265v24.601c0 11.116 9.011 20.127 20.127 20.127v-44.728-14.909-53.168c0-10.961-8.885-19.847-19.846-19.847z" fill="#544f57"/><path d="m352.593 253.056c-10.964 0-19.846 8.883-19.846 19.846v68.079h-25.535v24.596c0 5.555-2.256 10.592-5.892 14.235-3.643 3.636-8.68 5.892-14.235 5.892v-112.802c0-10.963 8.883-19.846 19.846-19.846z" fill="#454045"/></g><path d="m292.081 138.101c1.107 10.1 9.288 17.991 19.426 18.7.839.059 1.672.118 2.505.172 6.181.419 10.987 5.553 10.987 11.75v23.425c0 7.88 9.02 12.352 15.287 7.579 11.438-8.713 26.656-21.673 35.992-35.111 2.209-3.182 5.859-5.037 9.734-5.015 28.747.145 57.493-.779 86.24-2.8 8.014-.559 14.819-5.596 17.851-12.68.806-1.86 1.344-3.87 1.575-5.972 4.257-38.89 4.257-77.785 0-116.68-1.107-10.089-9.294-17.943-19.415-18.652-42.824-3.005-85.643-3.607-128.462-1.806-10.761.446-21.528 1.048-32.289 1.806-10.127.709-18.319 8.563-19.426 18.652-4.257 38.88-4.257 77.754-.005 116.632z" fill="#dd636e"/><g fill="#454045"><path d="m449.528 76.31h-107.763c-4.268 0-7.726-3.459-7.726-7.726s3.459-7.726 7.726-7.726h107.764c4.268 0 7.726 3.459 7.726 7.726s-3.459 7.726-7.727 7.726z"/><path d="m411.333 104.708h-69.568c-4.268 0-7.726-3.459-7.726-7.726s3.459-7.726 7.726-7.726h69.568c4.268 0 7.726 3.459 7.726 7.726s-3.458 7.726-7.726 7.726z"/></g><path d="m203.951 448.41c-1.107 10.1-9.288 17.991-19.426 18.7-.839.059-1.672.118-2.505.172-6.181.419-10.987 5.553-10.987 11.75v23.425c0 7.88-9.02 12.352-15.287 7.579-11.438-8.713-26.656-21.673-35.992-35.111-2.209-3.182-5.859-5.037-9.734-5.015-28.747.145-57.493-.779-86.24-2.8-8.014-.559-14.819-5.596-17.851-12.68-.806-1.86-1.344-3.87-1.575-5.972-4.257-38.89-4.257-77.785 0-116.68 1.107-10.089 9.294-17.943 19.415-18.652 42.824-3.005 85.643-3.607 128.462-1.806 10.761.446 21.528 1.048 32.289 1.806 10.127.709 18.319 8.563 19.426 18.652 4.256 38.879 4.256 77.753.005 116.632z" fill="#f4dd45"/><g fill="#454045"><path d="m154.268 386.618h-107.764c-4.268 0-7.726-3.459-7.726-7.726s3.459-7.726 7.726-7.726h107.764c4.268 0 7.726 3.459 7.726 7.726s-3.459 7.726-7.726 7.726z"/><path d="m116.073 415.016h-69.569c-4.268 0-7.726-3.459-7.726-7.726s3.459-7.726 7.726-7.726h69.569c4.268 0 7.726 3.459 7.726 7.726.001 4.267-3.458 7.726-7.726 7.726z"/></g></g></svg>